<mxfile compressed="false" type="device">
    <diagram id="Page-1" name="Page-1">
      <mxGraphModel arrows="1" connect="1" dx="1360" dy="864" fold="1" grid="1" gridSize="10" guides="1" math="0" page="1" pageHeight="1169" pageScale="1" pageWidth="827" shadow="1" tooltips="1">
        <root>
          <mxCell id="0" />   
          <mxCell id="1" parent="0" />
        <object id="a" label="R1,2">
      <mxCell parent="1" style="./Pics/cisco_router.txt" vertex="1">
          <mxGeometry as="geometry" height="53" width="78" x="849" y="864" />
      </mxCell>
    </object><object id="b" label="some">
      <mxCell parent="1" style="rounded=1;whiteSpace=wrap;html=1;" vertex="1">
          <mxGeometry as="geometry" height="60" width="120" x="485" y="62" />
      </mxCell>
    </object><object id="c" label="somelabel">
      <mxCell parent="1" style="rounded=1;whiteSpace=wrap;html=1;" vertex="1">
          <mxGeometry as="geometry" height="60" width="120" x="293" y="243" />
      </mxCell>
    </object><object id="d" label="somelabel1">
      <mxCell parent="1" style="rounded=1;whiteSpace=wrap;html=1;" vertex="1">
          <mxGeometry as="geometry" height="60" width="120" x="599" y="854" />
      </mxCell>
    </object><object id="e" label="R1">
      <mxCell parent="1" style="rounded=1;whiteSpace=wrap;html=1;" vertex="1">
          <mxGeometry as="geometry" height="60" width="120" x="714" y="0" />
      </mxCell>
    </object><object id="d303130c30b5b0888aefbcfd9e9dc1e6" label="DF">
      <mxCell edge="1" parent="1" source="a" style="endArrow=none;" target="b">
          <mxGeometry as="geometry" relative="1" />
      </mxCell>
    </object><object id="bdcbf319f8cc42532f48c909435dd4c1" label="Copper">
      <mxCell edge="1" parent="1" source="b" style="endArrow=none;" target="c">
          <mxGeometry as="geometry" relative="1" />
      </mxCell>
    </object><object id="f092681ee4bb4335d939309480a0146a" label="Copper">
      <mxCell edge="1" parent="1" source="b" style="endArrow=none;" target="e">
          <mxGeometry as="geometry" relative="1" />
      </mxCell>
    </object><object id="6ba49a0aa9fc16fd99ab07b41afa4df5" label="FW">
      <mxCell edge="1" parent="1" source="d" style="endArrow=none;" target="e">
          <mxGeometry as="geometry" relative="1" />
      </mxCell>
    </object></root>
      </mxGraphModel>
    </diagram></mxfile>